<?xml version="1.0" encoding="iso-8859-1"?>
<!DOCTYPE svg PUBLIC "-//W3C//DTD SVG 1.1//EN" "http://www.w3.org/Graphics/SVG/1.1/DTD/svg11.dtd">
<svg fill="#194e9e" height="800px" width="800px" version="1.1" id="Capa_1" xmlns="http://www.w3.org/2000/svg" xmlns:xlink="http://www.w3.org/1999/xlink" 
	 viewBox="0 0 298 298" xml:space="preserve">
<g>
	<path d="M149,130.417c-18.013,0-32.667,14.654-32.667,32.666c0,18.013,14.654,32.667,32.667,32.667s32.667-14.654,32.667-32.667
		C181.667,145.071,167.013,130.417,149,130.417z"/>
	<path d="M264,64.083V35.917H149v28.167H0v198h298v-198H264z M45.928,130.417c-11.046,0-20-8.954-20-20c0-11.046,8.954-20,20-20
		s20,8.954,20,20C65.928,121.462,56.974,130.417,45.928,130.417z M149,235.75c-40.068,0-72.667-32.599-72.667-72.667
		S108.932,90.417,149,90.417s72.667,32.598,72.667,72.666S189.068,235.75,149,235.75z"/>
</g>
</svg>